<svg width="56" height="52" viewBox="0 0 56 52" fill="none" xmlns="http://www.w3.org/2000/svg">
<path d="M54.7052 43.9892C54.256 43.9892 53.892 44.3533 53.892 44.8025V50.2364C53.892 50.3119 53.8306 50.3734 53.755 50.3734H50.6648V38.4915C50.6648 38.0423 50.3008 37.6782 49.8516 37.6782C49.4023 37.6782 49.0383 38.0423 49.0383 38.4915V50.3735H43.0669L44.6831 48.5955C44.9327 48.3208 45.0503 47.9308 44.998 47.552C44.9968 47.5439 44.9956 47.5359 44.9942 47.5277L43.1773 36.7932L43.5117 36.2899L43.5987 36.3517C43.8968 36.5635 44.277 36.6407 44.6448 36.5489C45.006 36.4585 45.3086 36.2155 45.475 35.8824V35.8823L47.3237 32.177L51.5466 33.8125C51.7133 33.885 53.8915 34.8838 53.8915 37.4825V41.007C53.8916 41.4563 54.2556 41.8204 54.7049 41.8204C55.1541 41.8204 55.5181 41.4563 55.5181 41.0071V37.4826C55.5181 33.7297 52.2993 32.3633 52.1623 32.3069C52.1571 32.3048 52.152 32.3027 52.1468 32.3007L44.9558 29.5157V28.0345C46.0783 27.1315 46.8666 25.8299 47.1033 24.3462C47.6632 24.2759 48.1826 24.0518 48.6136 23.6811C49.2317 23.1495 49.5864 22.3761 49.5864 21.5592C49.5864 20.9072 49.3601 20.2833 48.9548 19.7877V17.5933C48.9548 13.2986 45.4609 9.80474 41.1664 9.80474C39.2384 9.80474 37.4731 10.5104 36.1114 11.6752C36.0939 11.0521 35.8708 10.4583 35.4821 9.9829V7.78851C35.4821 3.49386 31.9881 0 27.6937 0C23.399 0 19.9052 3.49397 19.9052 7.78851V10.0401C19.5143 10.5073 19.2956 11.0705 19.2763 11.6683C18.4075 10.9258 17.3677 10.3669 16.2089 10.0617C15.7738 9.94722 15.3296 10.2067 15.2152 10.6411C15.1008 11.0755 15.3602 11.5204 15.7945 11.6348C18.496 12.3461 20.3827 14.7964 20.3827 17.5931V18.8095C20.3476 18.8022 20.2348 18.7828 20.2305 18.7821C20.2194 18.5526 20.1613 18.4124 20.0362 18.2324C19.828 17.9332 19.4541 17.5605 18.2516 16.268C17.823 15.8077 17.1299 15.7232 16.6038 16.0671C14.5441 17.4126 12.0417 18.0983 9.71951 17.962C8.96307 17.9177 8.49062 18.25 8.28926 18.7947C8.27126 18.7976 8.07011 18.8382 8.05895 18.8409V17.5931C8.05895 14.8965 9.86091 12.4705 12.4409 11.6933C12.8709 11.5639 13.1146 11.1102 12.9851 10.68C12.8555 10.2499 12.4012 10.0062 11.9717 10.1359C10.4026 10.6085 8.99224 11.5924 8.00061 12.9062C6.97449 14.2653 6.43221 15.8861 6.43221 17.5933V19.845C6.02255 20.3345 5.80102 20.9293 5.80102 21.5592C5.80102 22.9515 6.82681 24.1658 8.28828 24.3469C8.52771 25.7959 9.31386 27.1855 10.5546 28.1302V29.5161L3.37155 32.301C3.36645 32.3029 3.36136 32.305 3.35626 32.307C3.21898 32.3633 0 33.7296 0 37.4825V50.2364C0 51.209 0.791137 52 1.76368 52H26.8089C27.1589 52 27.4845 51.8962 27.7593 51.7197C28.0338 51.8962 28.3596 52 28.7097 52H53.755C54.7274 52 55.5186 51.209 55.5186 50.2364V44.8025C55.5185 44.3533 55.1545 43.9892 54.7052 43.9892ZM8.20869 22.6665C7.73191 22.4934 7.42732 22.0524 7.42732 21.559C7.42732 21.0805 7.77431 20.6873 8.20869 20.5007V22.6665ZM45.8004 31.587L44.204 34.7865C44.2038 34.7863 42.4308 33.527 42.4056 33.5091C43.1705 32.5649 42.8112 33.0085 44.4017 31.0454L45.8004 31.587ZM41.23 32.3762L39.1267 29.78V28.9998C39.8104 29.2362 40.5468 29.3453 41.2401 29.3455C41.2402 29.3455 41.2404 29.3455 41.2405 29.3455H41.2406C41.9574 29.3454 42.683 29.2093 43.3293 28.9661V29.785L41.23 32.3762ZM42.1848 35.3476L41.8857 35.798H40.5746L40.2754 35.3476L41.2302 34.6696L42.1848 35.3476ZM27.7571 22.5714L25.6538 19.9751V19.1949C26.3348 19.4303 27.0705 19.5404 27.7672 19.5406C27.7673 19.5406 27.7675 19.5406 27.7676 19.5406H27.7677C28.4832 19.5406 29.2087 19.405 29.8564 19.1613V19.9801L27.7571 22.5714ZM28.7119 25.543L28.4127 25.9933H27.1016L26.8025 25.543L27.7572 24.865L28.7119 25.543ZM21.3527 14.4641C21.4856 14.5003 21.6222 14.5249 21.7609 14.542C22.0003 15.991 22.7865 17.3806 24.0272 18.3254V19.7113L22.368 20.3544C22.2719 20.1524 22.1516 19.9621 22.0089 19.7876V17.5933C22.0089 16.4896 21.7764 15.4287 21.3527 14.4641ZM32.0788 13.6029C32.0788 15.9833 30.1369 17.9138 27.7677 17.9138C25.0947 17.9138 23.3084 15.8421 23.3084 13.6029V9.79335C25.8764 9.89615 28.5442 9.13505 30.7254 7.77745C31.4587 8.56382 31.8951 9.02065 32.0789 9.23275C32.0788 11.2575 32.0788 12.0394 32.0788 13.6029ZM33.6306 14.5415C33.7685 14.5241 33.9045 14.4994 34.0367 14.4633C33.6142 15.4219 33.3778 16.4802 33.3778 17.5933V19.8449C33.2528 19.9942 33.1452 20.1533 33.0562 20.3202L31.483 19.711V18.2298C32.6054 17.3266 33.3939 16.0251 33.6306 14.5415ZM24.5826 21.2418L26.5791 23.7061L25.2176 24.6731C25.2168 24.6737 25.2163 24.6742 25.2155 24.6748L24.7834 24.9817L23.1869 21.7824L24.5826 21.2418ZM29.6289 22.8449L30.9287 21.2405L32.3274 21.7822L30.7311 24.9817L30.2981 24.6742C30.2976 24.6739 30.2972 24.6735 30.2968 24.6731L28.9328 23.7043L29.6289 22.8449ZM30.0388 26.4852L30.1259 26.547C30.4299 26.763 30.8115 26.8343 31.1719 26.7441C31.5331 26.6538 31.8358 26.4108 32.0021 26.0777V26.0776L33.3747 23.3267C33.8462 23.9079 34.5283 24.2614 35.2307 24.3491C35.4788 25.9041 36.3193 27.2311 37.5002 28.1302V29.516L30.586 32.1966L29.7044 26.9885L30.0388 26.4852ZM38.0555 31.0466L40.0519 33.5109C39.1791 34.131 38.3015 34.7544 38.2563 34.7865L36.6598 31.5871L38.0555 31.0466ZM45.5515 23.4077C45.5517 25.7301 43.6657 27.7186 41.2406 27.7186C38.4764 27.7186 36.7812 25.5536 36.7812 23.4077V19.5982C39.331 19.7 42.0022 18.949 44.1981 17.5823C44.9315 18.3687 45.3678 18.8255 45.5516 19.0376C45.5515 21.0623 45.5515 21.8442 45.5515 23.4077ZM47.9598 21.5591C47.9598 22.0534 47.6543 22.4935 47.1785 22.6665V20.4541C47.6703 20.6332 47.9598 21.0827 47.9598 21.5591ZM35.0044 17.5931C35.0044 14.1955 37.7688 11.4313 41.1663 11.4313C44.564 11.4313 47.3281 14.1956 47.3281 17.5931V18.8095C47.2911 18.8018 47.1894 18.7842 47.1759 18.7821C47.1648 18.5524 47.1064 18.4118 46.9815 18.2324C46.7678 17.9254 46.3981 17.5591 45.1969 16.268C44.7775 15.8177 44.0859 15.7164 43.5492 16.0671C41.5453 17.3762 39.0136 18.1156 36.6045 17.9591C35.9278 17.9148 35.4375 18.2461 35.2346 18.7948C35.2165 18.7977 35.0157 18.8383 35.0043 18.841V17.5931H35.0044ZM35.1546 20.5008V22.6654C34.6764 22.493 34.3732 22.0508 34.3732 21.559C34.3731 21.0805 34.7199 20.6875 35.1546 20.5008ZM34.4868 11.7544C34.4868 12.0968 34.3385 12.4207 34.0801 12.6429C33.9692 12.7383 33.8428 12.8116 33.7054 12.8616V10.6492C34.1917 10.8258 34.4868 11.2728 34.4868 11.7544ZM27.6934 1.62651C31.091 1.62651 33.8553 4.39072 33.8553 7.7884V9.00471C33.8185 8.99712 33.7166 8.97945 33.703 8.97739C33.691 8.72831 33.6192 8.5752 33.4727 8.37709C33.255 8.08237 32.8535 7.67715 31.7241 6.46312C31.2976 6.0052 30.6049 5.91683 30.0763 6.2623C27.9601 7.64484 25.3929 8.31767 23.066 8.15101C22.4968 8.10796 21.9608 8.45191 21.7619 8.98985C21.7438 8.99278 21.5429 9.03334 21.5316 9.03605V7.78851H21.5315C21.5315 4.39072 24.2958 1.62651 27.6934 1.62651ZM21.6815 10.696V12.8617C21.2048 12.6887 20.9002 12.2477 20.9002 11.7543C20.9002 11.2785 21.2444 10.8839 21.6815 10.696ZM20.2324 20.4541C20.6874 20.6197 20.9797 21.0166 21.0086 21.4884C21.045 22.013 20.7227 22.4874 20.2324 22.6655V20.4541ZM20.1571 24.3489C20.9241 24.253 21.6282 23.8487 22.0899 23.2268L23.5124 26.0776C23.5124 26.0776 23.5124 26.0776 23.5125 26.0777C23.6787 26.4109 23.9813 26.6538 24.3425 26.7441C24.6996 26.8334 25.0816 26.7651 25.3886 26.547L25.4757 26.4852L25.81 26.9884L24.9287 32.1951L18.0102 29.5156V28.035H18.0101C19.162 27.1063 19.9259 25.794 20.1571 24.3489ZM14.2841 32.3762L12.1808 29.78V28.9998C12.8617 29.2352 13.5976 29.3453 14.2942 29.3454C14.2944 29.3454 14.2946 29.3454 14.2947 29.3454C15.0218 29.3454 15.7462 29.2057 16.3833 28.9661V29.785L14.2841 32.3762ZM15.2389 35.3476L14.9398 35.798H13.6287L13.3295 35.3476L14.2843 34.6696L15.2389 35.3476ZM17.4556 31.0454L18.8544 31.5871L17.2581 34.7865L16.825 34.479C16.8246 34.4786 16.8241 34.4782 16.8237 34.4779L15.4597 33.5091L17.4556 31.0454ZM9.83532 23.4077V19.5982C12.417 19.7013 15.0866 18.9301 17.2522 17.5823C17.9786 18.3613 18.4217 18.8253 18.6057 19.0376C18.6057 21.0624 18.6057 21.8443 18.6057 23.4077C18.6057 25.773 16.6772 27.7186 14.2947 27.7186C11.642 27.7186 9.83532 25.6706 9.83532 23.4077ZM11.1096 31.0466L13.1061 33.5109L11.7446 34.4779C11.7439 34.4784 11.7433 34.479 11.7426 34.4795L11.3105 34.7865L9.71398 31.5871L11.1096 31.0466ZM6.48036 50.3736V38.4915C6.48036 38.0423 6.11635 37.6782 5.6671 37.6782C5.21786 37.6782 4.85384 38.0423 4.85384 38.4915V50.3735H1.76368C1.688 50.3735 1.62662 50.312 1.62662 50.2365V37.4825C1.62662 34.8704 3.82751 33.8748 3.97 33.8132L8.19037 32.177L10.0393 35.8823C10.0393 35.8823 10.0393 35.8823 10.0394 35.8824C10.2056 36.2157 10.5083 36.4585 10.8696 36.5489C11.2266 36.6381 11.6087 36.5698 11.9156 36.3517L12.0027 36.2899L12.337 36.7932L10.5202 47.5277C10.5188 47.5358 10.5176 47.5439 10.5164 47.552C10.4641 47.9306 10.5818 48.3206 10.8315 48.5957L12.4475 50.3735H6.48036V50.3736ZM12.1526 47.6305L13.8798 37.4246H14.6886L16.416 47.6305L14.2843 49.9756L12.1526 47.6305ZM26.9458 50.2364C26.9458 50.312 26.8844 50.3735 26.8089 50.3735H23.7189V38.4915C23.7189 38.0423 23.3549 37.6782 22.9057 37.6782C22.4564 37.6782 22.0924 38.0423 22.0924 38.4915V50.3735H16.1209L17.7371 48.5955C17.9868 48.3208 18.1044 47.9308 18.052 47.552C18.0508 47.5439 18.0496 47.5359 18.0482 47.5277L16.2314 36.7932L16.5657 36.2899L16.6528 36.3517C16.8704 36.5064 17.1281 36.587 17.3895 36.587C17.8665 36.587 18.3108 36.3197 18.5291 35.8824V35.8823L20.3778 32.1771L24.6008 33.8126C25.8318 34.3481 26.9457 35.729 26.9457 37.4825V50.2364H26.9458ZM27.7592 34.5272C27.4223 33.9844 26.9738 33.4821 26.4331 33.0535L27.3528 27.62H28.1616L29.0816 33.0563C28.5266 33.4971 28.0839 34.0039 27.7592 34.5272ZM33.4262 50.3736V38.4915C33.4262 38.0423 33.0622 37.6782 32.6129 37.6782C32.1637 37.6782 31.7997 38.0423 31.7997 38.4915V50.3735H28.7096C28.634 50.3735 28.5725 50.312 28.5725 50.2365V37.4825C28.5725 36.5157 28.8757 35.6252 29.5216 34.8771C29.9522 34.3832 30.5233 33.9833 30.916 33.8132L35.1364 32.1769L36.9853 35.8823C36.9853 35.8823 36.9853 35.8823 36.9854 35.8824C37.1517 36.2157 37.4543 36.4585 37.8155 36.5489C38.1726 36.6381 38.5546 36.5698 38.8616 36.3517L38.9486 36.2899L39.2829 36.7932L37.4661 47.5277C37.4647 47.5358 37.4635 47.5439 37.4623 47.552C37.4101 47.9306 37.5277 48.3206 37.7774 48.5957L39.3934 50.3735H33.4262V50.3736ZM39.0984 47.6306L40.8257 37.4247H41.6345L43.3619 47.6306L41.2301 49.9757L39.0984 47.6306Z" fill="#E88B2F"/>
</svg>
